<?xml version="1.0" encoding="utf-8"?>
<!-- Generator: Adobe Illustrator 26.1.0, SVG Export Plug-In . SVG Version: 6.00 Build 0)  -->
<svg version="1.1" id="Ebene_1" xmlns="http://www.w3.org/2000/svg" xmlns:xlink="http://www.w3.org/1999/xlink" x="0px" y="0px"
	 viewBox="0 0 540 540" style="enable-background:new 0 0 540 540;" xml:space="preserve">
<style type="text/css">
	.st0{clip-path:url(#SVGID_00000085210548114919525680000003413089617453390731_);fill:#ED6B1D;}
	.st1{clip-path:url(#SVGID_00000085210548114919525680000003413089617453390731_);fill:#FFFFFF;}
	.st2{fill:#FFFFFF;}
</style>
<g>
	<defs>
		<rect id="SVGID_1_" x="7.1" y="8.1" width="525.7" height="523.7"/>
	</defs>
	<clipPath id="SVGID_00000043453797975152356610000006096517025509790356_">
		<use xlink:href="#SVGID_1_"  style="overflow:visible;"/>
	</clipPath>
	<path style="clip-path:url(#SVGID_00000043453797975152356610000006096517025509790356_);fill:#ED6B1D;" d="M532.9,8.1V270
		c0,35.3-6.7,68.8-18.9,99.1c-2.4,6.1-5.1,12.1-7.9,17.9c-19.5,39.6-48.6,73.1-84.5,98c-11.8,8.2-24.3,15.5-37.5,21.6
		c-34.5,16.3-73.1,25.2-114,25.2H270c-40.9,0-79.6-9-114-25.2C103,481.7,60,439.7,34,387c-17.2-35-26.8-74.6-26.8-117v-1.5
		c0.2-41.9,9.9-81.1,26.9-115.7C60,100.2,103,58.2,156,33.4c34.4-16.3,73.1-25.2,114-25.2H532.9z"/>
	<path style="clip-path:url(#SVGID_00000043453797975152356610000006096517025509790356_);fill:#FFFFFF;" d="M397.2,192.7
		c-11.5-23.3-30.5-41.8-53.9-52.8c-15.2-7.2-32.3-11.1-50.4-11.1h0c-18.1,0-35.1,4-50.4,11.1c-5.8,2.7-11.3,5.9-16.6,9.5
		c-15.8,11-28.7,25.8-37.3,43.3c-1.2,2.6-2.4,5.2-3.5,7.9c-5.4,13.4-8.4,28.2-8.4,43.8v51.8h65.8v-51.8c0-23,12-40.3,29.7-47.7
		c6.2-2.6,13.2-4,20.6-4h0c28.5,0,50.4,20.6,50.4,51.7c0,31.1-21.8,51.8-50.4,51.8v64c18.1,0,35.2-4,50.4-11.1
		c23.4-11,42.4-29.5,53.9-52.8c7.6-15.5,11.9-33,11.9-51.8C409.1,225.7,404.8,208.2,397.2,192.7"/>
</g>
<rect x="174.3" y="362.6" class="st2" width="67.5" height="52.5"/>
</svg>
